<svg xmlns="http://www.w3.org/2000/svg" width="24.017" height="24.017" viewBox="11.5 60.983 24.017 24.017"><g data-name="chevron-left"><g data-name="Group 176"><path d="m21.914 73 5.293-5.293a1 1 0 1 0-1.414-1.414l-6 6a1 1 0 0 0 0 1.414l6 6a1 1 0 1 0 1.414-1.414L21.914 73Z" fill-rule="evenodd" data-name="Shape"/><g data-name="Mask Group 176" transform="translate(11.5 61)" clip-path="url(&quot;#a&quot;)"><g data-name="COLOR/ black"><path d="M0 0h24v24H0V0z" fill-rule="evenodd" data-name="Rectangle"/></g></g></g></g><defs><clipPath id="a"><path d="m2.414 7 5.293-5.293A1 1 0 1 0 6.293.293l-6 6a1 1 0 0 0 0 1.414l6 6a1 1 0 1 0 1.414-1.414L2.414 7Z" data-name="Shape" transform="translate(8 5)"/></clipPath></defs></svg>