<svg xmlns="http://www.w3.org/2000/svg" width="18.067" height="18.067" viewBox="33.25 715.183 18.067 18.067"><g data-name="link"><g data-name="Group 53"><path d="M35.378 731.113a4.511 4.511 0 0 1-.046-6.33l2.254-2.255a4.511 4.511 0 0 1 6.8.487.752.752 0 0 1-1.204.9 3.004 3.004 0 0 0-4.533-.324l-2.245 2.245a3.006 3.006 0 0 0 4.241 4.26l1.285-1.285a.751.751 0 1 1 1.063 1.063l-1.295 1.294a4.494 4.494 0 0 1-3.132 1.266 4.495 4.495 0 0 1-3.188-1.321Zm8.087-3.898a4.508 4.508 0 0 1-3.289-1.797.751.751 0 1 1 1.204-.9 3.007 3.007 0 0 0 4.533.325l2.245-2.246a3.005 3.005 0 0 0-.036-4.213 3.004 3.004 0 0 0-4.207-.044l-1.292 1.285a.752.752 0 0 1-1.06-1.066l1.3-1.294a4.51 4.51 0 0 1 6.367 6.386l-2.254 2.254a4.507 4.507 0 0 1-3.511 1.31Z" fill="#85c5af" fill-rule="evenodd" data-name="Combined Shape"/><g data-name="Mask Group 53" transform="translate(34.058 716)" clip-path="url(&quot;#a&quot;)"><g data-name="COLOR/ black"><path d="M-.795-.801h18.036v18.036H-.795V-.801z" fill="#85c5af" fill-rule="evenodd" data-name="Rectangle"/></g></g></g></g><defs><clipPath id="a"><path d="M1.32 15.113a4.511 4.511 0 0 1-.046-6.33l2.254-2.255a4.511 4.511 0 0 1 6.8.487.752.752 0 0 1-1.204.9 3.004 3.004 0 0 0-4.533-.324L2.346 9.836a3.006 3.006 0 0 0 4.241 4.26l1.285-1.285a.751.751 0 1 1 1.063 1.063L7.64 15.168a4.494 4.494 0 0 1-3.132 1.266 4.495 4.495 0 0 1-3.188-1.321Zm8.087-3.898a4.508 4.508 0 0 1-3.288-1.797.751.751 0 1 1 1.203-.9 3.007 3.007 0 0 0 4.533.325L14.1 6.597a3.005 3.005 0 0 0-.036-4.213 3.004 3.004 0 0 0-4.206-.044L8.565 3.625a.752.752 0 0 1-1.06-1.066l1.3-1.294a4.51 4.51 0 0 1 6.367 6.386l-2.254 2.254a4.507 4.507 0 0 1-3.511 1.31Z" data-name="Combined Shape"/></clipPath></defs></svg>