<svg xmlns="http://www.w3.org/2000/svg" width="25.9" height="21.583" viewBox="220.05 191.2 25.9 21.583"><g data-name="adding-photo-icon" clip-path="url(&quot;#a&quot;)"><g data-name="camera"><path d="M244.878 209.559a2.16 2.16 0 0 1-2.16 2.16h-19.436a2.16 2.16 0 0 1-2.16-2.16V197.68a2.16 2.16 0 0 1 2.16-2.16h4.319l2.16-3.24h6.478l2.16 3.24h4.32a2.16 2.16 0 0 1 2.159 2.16v11.878Z" stroke-linejoin="round" stroke-linecap="round" stroke-width="1.5" stroke="#85c5af" fill="transparent" data-name="Path 5662"/><path d="M228.68 202.98a4.32 4.32 0 1 1 0 .1z" stroke-linejoin="round" stroke-linecap="round" stroke-width="1.5" stroke="#85c5af" fill="transparent" data-name="Ellipse 376"/></g></g><defs><clipPath id="a"><path d="M0 20.9a21 21 0 1 1 0 .1z" data-name="Ellipse 375" transform="translate(212 181)"/></clipPath></defs></svg>