<svg xmlns="http://www.w3.org/2000/svg" width="24.017" height="24" viewBox="317 212.5 24.017 24"><g data-name="x"><g data-name="Group 224"><path d="M334.293 231.207 329 225.914l-5.293 5.293a1 1 0 0 1-1.414-1.414l5.293-5.293-5.293-5.293a1.002 1.002 0 0 1 0-1.415c.39-.39 1.024-.39 1.414 0l5.293 5.294 5.293-5.294a1.001 1.001 0 0 1 1.414 1.415l-5.293 5.293 5.293 5.293a1 1 0 1 1-1.414 1.414Z" fill-rule="evenodd" data-name="Combined Shape"/><g data-name="Mask Group 224" transform="translate(317 212.5)" clip-path="url(&quot;#a&quot;)"><g data-name="COLOR/ black"><path d="M0 0h24v24H0V0z" fill-rule="evenodd" data-name="Rectangle"/></g></g></g></g><defs><clipPath id="a"><path d="M12.293 13.707 7 8.414l-5.293 5.293a1 1 0 0 1-1.414-1.414L5.586 7 .293 1.707a1.002 1.002 0 0 1 0-1.414c.39-.39 1.024-.39 1.414 0L7 5.586 12.293.293a1.001 1.001 0 0 1 1.414 1.414L8.414 7l5.293 5.293a1 1 0 1 1-1.414 1.414Z" data-name="Combined Shape" transform="translate(5 5)"/></clipPath></defs></svg>