<svg xmlns="http://www.w3.org/2000/svg" width="24" height="24.017" viewBox="297 412.5 24 24.017"><g data-name="eye"><g data-name="Group 163"><path d="M309 433.5c-3.19 0-6.17-1.452-8.854-4.316a20.54 20.54 0 0 1-2.251-2.891 15.006 15.006 0 0 1-.79-1.346c-.14-.28-.14-.614 0-.894a15 15 0 0 1 .79-1.346 20.54 20.54 0 0 1 2.25-2.89c2.686-2.865 5.665-4.317 8.855-4.317 3.19 0 6.169 1.452 8.855 4.316a20.54 20.54 0 0 1 2.25 2.891c.442.685.684 1.137.79 1.346.14.28.14.614 0 .894-.106.209-.348.661-.79 1.346a20.54 20.54 0 0 1-2.25 2.89c-2.686 2.865-5.665 4.317-8.855 4.317Zm0-16c-2.615 0-5.103 1.24-7.396 3.683a18.536 18.536 0 0 0-2.463 3.317 18.536 18.536 0 0 0 2.463 3.316c2.293 2.445 4.78 3.684 7.396 3.684 2.615 0 5.104-1.24 7.396-3.684a18.434 18.434 0 0 0 2.463-3.316 18.434 18.434 0 0 0-2.463-3.317c-2.292-2.444-4.78-3.683-7.396-3.683Zm0 11c-2.206 0-4-1.795-4-4s1.794-4 4-4 4 1.795 4 4-1.794 4-4 4Zm0-6c-1.103 0-2 .897-2 2s.897 2 2 2 2-.897 2-2-.897-2-2-2Z" fill="#8f8f8f" fill-rule="evenodd" data-name="Combined Shape"/><g data-name="Mask Group 163" transform="translate(297 412.5)" clip-path="url(&quot;#a&quot;)"><g data-name="COLOR/ black"><path d="M0 0h24v24H0V0z" fill="#8f8f8f" fill-rule="evenodd" data-name="Rectangle"/></g></g></g></g><defs><clipPath id="a"><path d="M12 18c-3.19 0-6.17-1.452-8.855-4.316a20.54 20.54 0 0 1-2.25-2.891 15.006 15.006 0 0 1-.79-1.346c-.14-.28-.14-.614 0-.894a15 15 0 0 1 .79-1.346 20.54 20.54 0 0 1 2.25-2.89C5.831 1.451 8.81 0 12 0c3.19 0 6.169 1.452 8.855 4.316a20.54 20.54 0 0 1 2.25 2.891c.442.685.684 1.137.79 1.346.14.28.14.614 0 .894-.106.209-.348.661-.79 1.346a20.54 20.54 0 0 1-2.25 2.89C18.169 16.549 15.19 18 12 18Zm0-16C9.385 2 6.897 3.24 4.604 5.683A18.536 18.536 0 0 0 2.141 9a18.536 18.536 0 0 0 2.463 3.316C6.897 14.761 9.384 16 12 16c2.615 0 5.104-1.24 7.396-3.684A18.434 18.434 0 0 0 21.859 9a18.434 18.434 0 0 0-2.463-3.317C17.104 3.24 14.616 2 12 2Zm0 11c-2.206 0-4-1.795-4-4s1.794-4 4-4 4 1.795 4 4-1.794 4-4 4Zm0-6c-1.103 0-2 .897-2 2s.897 2 2 2 2-.897 2-2-.897-2-2-2Z" data-name="Combined Shape" transform="translate(0 3)"/></clipPath></defs></svg>