<svg xmlns="http://www.w3.org/2000/svg" width="24.017" height="24.017" viewBox="27 371 24.017 24.017"><g data-name="log-out"><g data-name="Group 141"><path d="M32 394a3 3 0 0 1-3-3v-16a3 3 0 0 1 3-3h5a1 1 0 1 1 0 2h-5a1 1 0 0 0-1 1v16a1 1 0 0 0 1 1h5a1 1 0 0 1 0 2h-5Zm11.293-6.293a1 1 0 0 1 0-1.414L45.586 384H36a1 1 0 1 1 0-2h9.586l-2.293-2.293a1 1 0 1 1 1.414-1.414l3.995 3.996.039.04a1 1 0 0 1-.034 1.379l-4 4a.997.997 0 0 1-1.414 0Z" fill="#fff" fill-rule="evenodd" data-name="Combined Shape"/><g data-name="Mask Group 141" transform="translate(27 371)" clip-path="url(&quot;#a&quot;)"><g data-name="COLOR/ black"><path d="M0 0h24v24H0V0z" fill="#fff" fill-rule="evenodd" data-name="Rectangle"/></g></g></g></g><defs><clipPath id="a"><path d="M3 22a3 3 0 0 1-3-3V3a3 3 0 0 1 3-3h5a1 1 0 1 1 0 2H3a1 1 0 0 0-1 1v16a1 1 0 0 0 1 1h5a1 1 0 0 1 0 2H3Zm11.293-6.293a1 1 0 0 1 0-1.414L16.586 12H7a1 1 0 1 1 0-2h9.586l-2.293-2.293a1 1 0 1 1 1.414-1.414l3.995 3.995.039.04a1 1 0 0 1-.034 1.38l-4 3.999a.997.997 0 0 1-1.414 0Z" data-name="Combined Shape" transform="translate(2 1)"/></clipPath></defs></svg>