<svg xmlns="http://www.w3.org/2000/svg" width="26" height="26.017" viewBox="18 62 26 26.017"><g data-name="menu"><g data-name="Group 73"><path d="M21.1 82c-.608 0-1.1-.48-1.1-1.072 0-.591.492-1.072 1.1-1.072h19.8c.608 0 1.1.48 1.1 1.072C42 81.52 41.508 82 40.9 82H21.1Zm0-6.429c-.608 0-1.1-.48-1.1-1.071 0-.592.492-1.071 1.1-1.071h19.8c.608 0 1.1.479 1.1 1.071 0 .591-.492 1.071-1.1 1.071H21.1Zm0-6.428c-.608 0-1.1-.48-1.1-1.072 0-.592.492-1.071 1.1-1.071h19.8c.608 0 1.1.48 1.1 1.071 0 .592-.492 1.072-1.1 1.072H21.1Z" fill-rule="evenodd" data-name="Combined Shape"/><g data-name="Mask Group 73" transform="translate(20 67)" clip-path="url(&quot;#a&quot;)"><g data-name="COLOR/ black"><path d="M-2-5h26v26H-2V-5z" fill-rule="evenodd" data-name="Rectangle"/></g></g></g></g><defs><clipPath id="a"><path d="M1.1 15C.492 15 0 14.52 0 13.928c0-.591.492-1.072 1.1-1.072h19.8c.608 0 1.1.48 1.1 1.072C22 14.52 21.508 15 20.9 15H1.1Zm0-6.429C.492 8.571 0 8.091 0 7.5c0-.592.492-1.071 1.1-1.071h19.8c.608 0 1.1.479 1.1 1.071 0 .591-.492 1.071-1.1 1.071H1.1Zm0-6.428c-.608 0-1.1-.48-1.1-1.072C0 .48.492 0 1.1 0h19.8c.608 0 1.1.48 1.1 1.071 0 .592-.492 1.072-1.1 1.072H1.1Z" data-name="Combined Shape"/></clipPath></defs></svg>