<svg xmlns="http://www.w3.org/2000/svg" width="24.017" height="24.017" viewBox="25.1 305.983 24.017 24.017"><g data-name="phone-outgoing"><g data-name="Group 138"><path d="M44.994 329.927c-.1 0-.193-.005-.282-.013a20.862 20.862 0 0 1-9.058-3.22 20.609 20.609 0 0 1-6.303-6.3 20.906 20.906 0 0 1-3.227-9.124 3.005 3.005 0 0 1 .772-2.293A3.01 3.01 0 0 1 29.11 308h3.02a2.997 2.997 0 0 1 2.971 2.59c.117.883.334 1.754.645 2.588a3.012 3.012 0 0 1-.68 3.17l-.716.716a15.109 15.109 0 0 0 4.586 4.586l.72-.72a2.983 2.983 0 0 1 2.111-.868c.36 0 .715.064 1.052.191a11.9 11.9 0 0 0 2.6.647 3.003 3.003 0 0 1 2.58 3.03v2.986a3 3 0 0 1-3.006 3.01ZM29.11 310a1.005 1.005 0 0 0-.997 1.074c.31 2.92 1.32 5.769 2.92 8.24a18.384 18.384 0 0 0 5.7 5.697 18.85 18.85 0 0 0 8.176 2.913.997.997 0 0 0 1.09-1.004v-3c.012-.522-.353-.969-.85-1.039a13.906 13.906 0 0 1-3.032-.755.997.997 0 0 0-1.05.22l-1.27 1.27a.995.995 0 0 1-1.202.164 17.003 17.003 0 0 1-6.375-6.376 1 1 0 0 1 .162-1.202l1.266-1.265c.273-.276.361-.692.224-1.057a13.788 13.788 0 0 1-.753-3.02.999.999 0 0 0-1-.86h-3.01ZM41 316a1.002 1.002 0 0 1-.707-1.707L45.585 309H42a1.001 1.001 0 0 1 0-2h6a.996.996 0 0 1 .426.095l.012.006.007.003.007.003a.015.015 0 0 0 .006.004.113.113 0 0 1 .013.007l.005.003a.993.993 0 0 1 .524.908V314a1.001 1.001 0 0 1-2 0v-3.585l-5.293 5.292A.994.994 0 0 1 41 316Z" fill="#fff" fill-rule="evenodd" data-name="Combined Shape"/><g data-name="Mask Group 138" transform="translate(25.112 306)" clip-path="url(&quot;#a&quot;)"><g data-name="COLOR/ black"><path d="M0 0h24v24H0V0z" fill="#fff" fill-rule="evenodd" data-name="Rectangle"/></g></g></g></g><defs><clipPath id="a"><path d="M18.882 22.927c-.1 0-.193-.005-.282-.013a20.862 20.862 0 0 1-9.058-3.22 20.609 20.609 0 0 1-6.303-6.3A20.906 20.906 0 0 1 .013 4.27a3.005 3.005 0 0 1 .77-2.293A3.01 3.01 0 0 1 2.999 1h3.02a2.997 2.997 0 0 1 2.971 2.59c.117.883.334 1.754.646 2.589a3.012 3.012 0 0 1-.68 3.168l-.717.717a15.109 15.109 0 0 0 4.586 4.586l.721-.72a2.983 2.983 0 0 1 2.11-.868c.361 0 .715.064 1.053.191a11.9 11.9 0 0 0 2.6.647 3.003 3.003 0 0 1 2.58 3.03v2.986a3 3 0 0 1-3.006 3.01ZM2.999 3a1.005 1.005 0 0 0-.996 1.074c.31 2.92 1.319 5.769 2.92 8.24a18.384 18.384 0 0 0 5.699 5.697 18.85 18.85 0 0 0 8.176 2.913.997.997 0 0 0 1.09-1.004v-3c.013-.522-.353-.969-.85-1.039a13.906 13.906 0 0 1-3.032-.755.997.997 0 0 0-1.05.22l-1.27 1.27a.995.995 0 0 1-1.202.164 17.003 17.003 0 0 1-6.375-6.376 1 1 0 0 1 .162-1.201l1.267-1.266c.272-.276.36-.692.224-1.057a13.788 13.788 0 0 1-.754-3.02.999.999 0 0 0-1-.86h-3.01Zm11.889 6a1.002 1.002 0 0 1-.707-1.707L19.473 2h-3.585a1.001 1.001 0 0 1 0-2h6a.996.996 0 0 1 .427.095l.011.006c.003 0 .005.002.007.003l.007.003a.015.015 0 0 0 .006.004.113.113 0 0 1 .013.007l.005.003a.993.993 0 0 1 .524.908V7a1.001 1.001 0 0 1-2 0V3.415l-5.293 5.293a.994.994 0 0 1-.707.292Z" data-name="Combined Shape" transform="translate(1 1)"/></clipPath></defs></svg>