<svg xmlns="http://www.w3.org/2000/svg" width="24.033" height="24.017" viewBox="113.983 350 24.033 24.017"><g data-name="upload"><g data-name="Group 139"><path d="M119 373a3 3 0 0 1-3-3v-3a1 1 0 1 1 2 0v3a1 1 0 0 0 1 1h14a1 1 0 0 0 1-1v-3a1 1 0 1 1 2 0v3a3 3 0 0 1-3 3h-14Zm6-7v-11.586l-2.293 2.293a1 1 0 1 1-1.414-1.414l4-4a.994.994 0 0 1 .25-.182l.005-.003a.99.99 0 0 1 .026-.013l.008-.003a.995.995 0 0 1 .018-.009h.002a.998.998 0 0 1 .796 0h.002a.993.993 0 0 1 .018.009c.003 0 .005.002.008.003a.98.98 0 0 1 .026.013l.006.003a1 1 0 0 1 .25.182l3.999 4a1 1 0 1 1-1.414 1.414L127 354.414V366a1 1 0 0 1-2 0Z" fill="#fff" fill-rule="evenodd" data-name="Combined Shape"/><g data-name="Mask Group 139" transform="translate(114 350)" clip-path="url(&quot;#a&quot;)"><g data-name="COLOR/ black"><path d="M0 0h24v24H0V0z" fill="#fff" fill-rule="evenodd" data-name="Rectangle"/></g></g></g></g><defs><clipPath id="a"><path d="M3 22a3 3 0 0 1-3-3v-3a1 1 0 1 1 2 0v3a1 1 0 0 0 1 1h14a1 1 0 0 0 1-1v-3a1 1 0 1 1 2 0v3a3 3 0 0 1-3 3H3Zm6-7V3.414L6.707 5.707a1 1 0 1 1-1.414-1.414l4-4a.994.994 0 0 1 .25-.182l.005-.004a.99.99 0 0 1 .026-.012l.008-.004A.995.995 0 0 1 9.6.083h.002a.998.998 0 0 1 .796 0h.002a.993.993 0 0 1 .018.008l.008.004a.98.98 0 0 1 .026.012l.006.004a1 1 0 0 1 .25.182l3.999 4a1 1 0 1 1-1.414 1.414L11 3.414V15a1 1 0 0 1-2 0Z" data-name="Combined Shape" transform="translate(2 1)"/></clipPath></defs></svg>