<svg xmlns="http://www.w3.org/2000/svg" width="24.017" height="24.017" viewBox="23 238.5 24.017 24.017"><g data-name="user"><g data-name="Group 86"><path d="M43 260.5c-.551 0-1-.449-1-1v-2c0-1.654-1.346-3-3-3h-8c-1.654 0-3 1.346-3 3v2a1.001 1.001 0 0 1-2 0v-2c0-2.757 2.243-5 5-5h8c2.757 0 5 2.243 5 5v2c0 .551-.449 1-1 1Zm-8-10c-2.757 0-5-2.243-5-5s2.243-5 5-5 5 2.243 5 5-2.243 5-5 5Zm0-8c-1.654 0-3 1.346-3 3s1.346 3 3 3 3-1.346 3-3-1.346-3-3-3Z" fill="#fff" fill-rule="evenodd" data-name="Combined Shape"/><g data-name="Mask Group 86" transform="translate(26 240.5)" clip-path="url(&quot;#a&quot;)"><g data-name="COLOR/ black"><path d="M-3-2h24v24H-3V-2z" fill="#fff" fill-rule="evenodd" data-name="Rectangle"/></g></g></g></g><defs><clipPath id="a"><path d="M17 20c-.551 0-1-.449-1-1v-2c0-1.654-1.346-3-3-3H5c-1.654 0-3 1.346-3 3v2a1.001 1.001 0 0 1-2 0v-2c0-2.757 2.243-5 5-5h8c2.757 0 5 2.243 5 5v2c0 .551-.449 1-1 1ZM9 10c-2.757 0-5-2.243-5-5s2.243-5 5-5 5 2.243 5 5-2.243 5-5 5Zm0-8C7.346 2 6 3.346 6 5s1.346 3 3 3 3-1.346 3-3-1.346-3-3-3Z" data-name="Combined Shape"/></clipPath></defs></svg>